<?xml version="1.0" standalone="no"?>
<!DOCTYPE svg PUBLIC "-//W3C//DTD SVG 20010904//EN"
 "http://www.w3.org/TR/2001/REC-SVG-20010904/DTD/svg10.dtd">
<svg version="1.0" xmlns="http://www.w3.org/2000/svg"
 width="989.000000pt" height="1280.000000pt" viewBox="0 0 989.000000 1280.000000"
 preserveAspectRatio="xMidYMid meet">

<g transform="translate(0.000000,1280.000000) scale(0.100000,-0.100000)"
fill="#000000" stroke="none">
<path d="M444 12249 c-10 -17 -12 -1121 -2 -1141 8 -17 38 -18 413 -18 366 0
405 2 420 17 16 15 17 35 10 197 -4 100 -12 187 -17 194 -7 7 -36 12 -77 12
-36 0 -72 4 -80 9 -10 7 -13 53 -12 227 1 138 6 223 13 231 16 20 741 19 757
-1 18 -21 18 -446 0 -457 -8 -5 -43 -9 -79 -9 -38 0 -71 -5 -78 -12 -17 -17
-17 -379 0 -396 8 -8 62 -12 178 -12 116 0 170 4 178 12 9 9 12 69 12 209 0
229 2 223 -102 235 -32 4 -62 12 -68 19 -7 8 -9 83 -8 206 l3 194 35 12 c24 8
144 12 395 12 410 1 459 -5 533 -70 22 -19 69 -58 106 -88 36 -29 66 -61 66
-71 0 -9 11 -26 24 -39 12 -12 28 -38 34 -59 6 -21 22 -52 36 -70 14 -20 27
-55 31 -85 10 -80 23 -122 43 -140 16 -15 20 -15 39 -2 24 17 53 103 53 157 0
20 12 51 30 78 16 25 30 55 30 66 0 12 13 38 30 59 16 21 30 41 30 45 0 37
171 178 250 207 84 30 363 8 430 -35 32 -20 144 -114 149 -125 2 -5 16 -22 32
-38 16 -16 29 -37 29 -46 0 -9 13 -37 29 -62 16 -25 32 -62 36 -81 4 -19 19
-57 33 -85 26 -51 37 -118 48 -290 9 -124 10 -125 146 -125 60 0 118 5 129 10
18 10 19 23 19 204 0 143 -3 196 -12 204 -7 5 -44 13 -81 17 -60 7 -70 10 -78
32 -12 32 -12 375 1 407 l10 26 517 -1 518 0 65 -37 c50 -29 70 -47 85 -79 11
-23 32 -52 47 -65 15 -13 30 -38 34 -55 12 -63 24 -21 24 87 0 165 -49 151
519 147 258 -2 487 -8 514 -14 26 -5 62 -21 81 -34 52 -37 126 -124 126 -148
0 -12 12 -45 27 -74 26 -50 27 -58 28 -203 0 -144 -1 -153 -26 -200 -15 -27
-30 -63 -33 -80 -4 -17 -20 -44 -36 -59 -17 -16 -30 -36 -30 -45 0 -36 19 -40
211 -40 161 0 190 2 204 17 14 14 16 39 13 195 -3 207 -4 208 -93 208 -28 0
-56 5 -63 12 -9 9 -12 73 -12 224 0 180 2 215 16 228 13 14 55 16 305 16 190
0 297 4 311 11 26 14 68 3 68 -17 0 -9 14 -46 30 -84 16 -38 30 -80 30 -95 0
-41 29 -95 51 -95 29 0 39 39 39 150 0 138 -18 130 301 130 226 0 258 -2 270
-17 11 -12 15 -63 17 -207 l3 -191 -32 -33 c-25 -26 -39 -32 -73 -32 -23 0
-47 -5 -54 -12 -17 -17 -17 -379 0 -396 9 -9 99 -12 343 -12 244 0 334 3 343
12 9 9 12 149 12 569 0 307 -3 564 -6 573 -6 15 -404 16 -4419 16 -3234 0
-4416 -3 -4421 -11z"/>
<path d="M2538 11543 c-53 -8 -58 -29 -58 -240 0 -180 1 -193 19 -203 28 -14
244 -13 259 2 15 15 15 79 1 133 -6 22 -19 74 -28 115 -19 77 -76 182 -106
194 -17 6 -40 6 -87 -1z"/>
<path d="M5893 11518 c-12 -16 -53 -203 -53 -239 0 -15 -8 -37 -19 -50 -48
-62 -64 -122 -35 -133 30 -11 229 -7 242 6 9 9 12 69 12 208 0 139 -3 199 -12
208 -16 16 -123 16 -135 0z"/>
<path d="M5164 11505 c-19 -12 -21 -22 -17 -87 2 -47 9 -78 18 -88 19 -18 179
-32 211 -18 23 11 34 49 34 123 0 46 -6 57 -37 74 -32 17 -184 14 -209 -4z"/>
<path d="M6493 11510 c-21 -9 -23 -15 -23 -98 0 -55 4 -92 12 -100 8 -8 45
-12 103 -12 70 0 95 4 111 18 67 54 54 145 -26 187 -32 17 -141 19 -177 5z"/>
<path d="M3781 11475 c-34 -31 -40 -43 -46 -93 -3 -31 -16 -92 -27 -135 -26
-94 -17 -113 34 -74 64 49 84 51 139 16 27 -17 49 -35 49 -40 0 -4 9 -13 21
-19 15 -9 24 -8 36 1 12 11 14 30 11 99 -5 101 -41 196 -94 248 -44 42 -74 41
-123 -3z"/>
<path d="M8195 11501 c-8 -15 13 -97 37 -144 12 -23 25 -66 29 -96 13 -94 62
-110 75 -25 10 70 -2 255 -18 265 -18 12 -115 11 -123 0z"/>
<path d="M7717 11134 c-8 -8 1 -24 14 -24 5 0 9 7 9 15 0 15 -12 20 -23 9z"/>
<path d="M458 10919 c-7 -5 -11 -192 -12 -553 -1 -446 1 -547 12 -551 22 -8
3832 -6 3832 3 0 4 -24 28 -54 54 -30 27 -57 59 -60 75 -4 15 -19 45 -32 66
-14 22 -29 60 -33 85 -17 107 -51 130 -139 96 -94 -36 -357 -3 -432 54 -82 63
-190 188 -190 222 0 12 -13 41 -30 64 -18 27 -33 66 -39 102 -17 97 -25 119
-48 122 -29 4 -43 -25 -54 -110 -6 -51 -15 -78 -34 -100 -14 -16 -28 -42 -31
-56 -12 -49 -76 -142 -113 -164 -20 -12 -66 -41 -102 -64 -138 -91 -113 -87
-554 -88 -398 0 -423 2 -447 38 -4 6 -8 99 -8 207 0 227 1 229 86 229 82 0 88
10 92 137 3 87 1 112 -11 121 -11 9 -61 12 -178 10 l-164 -3 -3 -108 -3 -107
26 -10 c15 -6 43 -10 63 -10 46 0 56 -7 68 -45 15 -44 11 -405 -4 -432 -7 -13
-26 -25 -45 -28 -17 -3 -177 -4 -355 -3 -307 3 -324 4 -338 22 -11 16 -14 64
-14 231 0 248 2 255 79 255 77 0 84 11 82 121 -1 51 -7 99 -13 106 -8 10 -103
13 -400 15 -214 2 -395 0 -400 -3z"/>
<path d="M2514 10912 c-14 -8 -22 -195 -10 -229 9 -27 37 -37 81 -29 40 8 110
85 120 132 3 16 11 49 17 72 9 36 8 46 -3 53 -17 10 -189 12 -205 1z"/>
<path d="M3754 10909 c-4 -7 -6 -46 -5 -88 2 -76 2 -76 44 -113 49 -44 77 -54
106 -38 29 15 27 60 -4 90 -14 13 -27 38 -31 56 -4 21 -21 47 -45 69 -42 37
-54 42 -65 24z"/>
<path d="M4472 10908 c-5 -7 -13 -28 -17 -47 -9 -42 3 -51 67 -51 48 0 77 -17
79 -48 1 -9 3 -24 4 -32 1 -8 3 -20 4 -26 1 -15 78 -25 106 -14 22 8 23 14 23
107 0 54 -5 104 -10 111 -7 8 -46 12 -128 12 -82 0 -121 -4 -128 -12z"/>
<path d="M5865 10910 c-3 -5 1 -30 9 -55 9 -25 19 -70 22 -101 8 -61 21 -74
76 -74 52 0 58 12 58 126 0 84 -3 103 -16 108 -25 10 -142 7 -149 -4z"/>
<path d="M7343 10903 c-5 -10 -8 -61 -8 -113 0 -93 1 -95 26 -104 14 -5 42 -6
62 -2 l37 7 0 108 c0 121 0 121 -70 121 -28 0 -42 -5 -47 -17z"/>
<path d="M7732 10907 c-7 -8 -11 -53 -10 -111 2 -93 3 -99 26 -107 35 -13 96
-11 117 5 17 12 17 17 5 47 -7 19 -21 45 -31 59 -9 14 -21 44 -25 65 -4 22
-12 43 -18 47 -18 12 -53 9 -64 -5z"/>
<path d="M8605 10908 c-3 -7 -6 -167 -8 -355 -2 -313 -4 -344 -20 -360 -16
-16 -41 -18 -254 -18 -220 0 -237 1 -247 19 -6 10 -23 37 -38 60 -15 22 -30
61 -34 86 -3 25 -18 65 -32 90 -15 25 -29 65 -32 90 -4 32 -10 46 -23 48 -17
3 -18 -8 -15 -177 2 -161 1 -183 -15 -198 -16 -16 -44 -18 -285 -19 -147 0
-275 3 -284 8 -13 6 -18 24 -20 70 -3 70 -22 88 -39 39 -6 -17 -20 -36 -31
-42 -10 -6 -23 -21 -28 -35 -5 -13 -20 -28 -32 -33 -13 -5 -96 -8 -185 -7
-163 2 -193 9 -193 41 0 8 -11 27 -25 44 -17 19 -28 47 -31 78 -16 136 -32
222 -46 242 -14 19 -16 20 -22 5 -4 -9 -9 -92 -13 -184 -6 -154 -8 -169 -29
-196 l-24 -29 -345 0 c-391 1 -371 -4 -382 83 -3 29 -9 55 -14 57 -16 10 -56
-19 -104 -76 -29 -34 -60 -60 -75 -63 -14 -3 -260 -4 -548 -2 -402 2 -526 0
-539 -9 -10 -8 -18 -30 -20 -55 -2 -23 -16 -70 -33 -105 -16 -34 -30 -73 -30
-85 0 -14 -15 -36 -37 -55 -22 -19 -34 -36 -29 -43 5 -9 572 -12 2409 -12
1321 0 2408 4 2415 8 10 7 12 124 10 553 l-3 544 -333 3 c-262 2 -334 0 -337
-10z"/>
<path d="M7130 10898 c0 -22 17 -41 29 -34 19 12 13 46 -9 46 -11 0 -20 -6
-20 -12z"/>
<path d="M6502 10862 c-16 -16 -19 -31 -17 -91 3 -82 14 -101 62 -101 18 0 50
-7 69 -15 20 -8 40 -12 45 -9 10 6 11 92 1 148 -8 47 -40 73 -98 82 -34 5 -46
2 -62 -14z"/>
<path d="M5205 10863 c-33 -8 -45 -34 -45 -99 0 -82 10 -89 116 -88 106 1 114
7 114 91 0 96 -6 103 -93 102 -40 -1 -81 -3 -92 -6z"/>
<path d="M4401 10651 c-7 -5 -15 -27 -18 -49 -3 -23 -12 -47 -19 -53 -8 -6
-14 -20 -14 -29 0 -22 50 -64 62 -52 13 13 30 121 23 153 -8 33 -16 41 -34 30z"/>
<path d="M497 9583 c-4 -3 -7 -1294 -7 -2867 1 -2800 1 -2863 20 -2946 11 -47
20 -106 20 -131 0 -26 9 -75 20 -109 11 -34 20 -80 20 -102 0 -21 8 -55 19
-76 10 -20 21 -58 24 -85 4 -26 13 -57 21 -70 8 -12 17 -38 21 -57 4 -19 13
-44 21 -55 7 -11 16 -38 20 -60 4 -22 15 -51 25 -64 11 -13 19 -33 19 -43 0
-11 9 -31 20 -45 11 -14 20 -33 20 -43 0 -9 9 -25 20 -35 11 -10 20 -28 20
-40 0 -12 9 -34 20 -48 11 -14 20 -32 20 -40 0 -8 8 -25 19 -38 10 -13 21 -34
25 -45 4 -12 15 -29 26 -39 11 -10 20 -23 21 -29 0 -6 16 -31 34 -56 19 -25
49 -69 66 -99 18 -30 39 -62 46 -70 8 -9 35 -43 60 -76 71 -91 228 -277 254
-302 13 -12 42 -39 64 -61 22 -21 87 -80 145 -132 58 -51 108 -98 112 -105 4
-7 40 -34 80 -61 40 -27 75 -53 77 -57 3 -7 41 -33 102 -72 10 -5 41 -27 71
-48 31 -20 58 -37 61 -37 4 0 28 -16 53 -35 26 -20 61 -42 79 -49 18 -8 36
-19 39 -25 4 -6 15 -11 25 -11 10 0 26 -9 35 -19 10 -11 31 -23 47 -26 16 -4
32 -11 35 -17 3 -5 25 -18 49 -28 24 -10 46 -23 49 -29 4 -6 15 -11 25 -11 10
0 30 -9 44 -20 14 -11 33 -20 42 -20 9 0 28 -9 42 -20 14 -11 32 -20 40 -20 8
0 31 -9 51 -19 73 -37 149 -71 160 -71 6 0 26 -9 44 -20 18 -11 44 -20 58 -20
14 0 39 -9 55 -20 17 -11 38 -20 48 -20 10 0 35 -9 57 -20 22 -11 51 -20 65
-20 14 0 43 -9 65 -20 22 -11 52 -20 67 -20 15 0 48 -9 72 -20 24 -11 55 -20
70 -20 14 -1 44 -8 66 -16 22 -9 74 -22 115 -30 41 -7 93 -20 115 -28 22 -8
58 -15 80 -16 22 0 72 -9 110 -20 38 -11 95 -20 125 -20 30 0 80 -7 110 -16
30 -8 125 -19 210 -24 85 -5 187 -15 225 -22 113 -19 623 -17 768 5 65 9 160
17 211 17 58 0 110 6 136 15 24 8 91 19 149 25 58 5 123 16 143 24 21 9 55 16
77 16 21 0 67 9 102 19 35 11 87 23 114 27 28 3 62 13 76 20 15 7 46 17 70 20
24 4 62 15 84 25 22 10 51 19 65 19 14 0 39 9 55 20 17 11 44 20 60 20 17 0
45 9 63 20 18 11 40 20 50 20 9 0 32 9 50 20 18 11 40 20 50 20 9 0 31 9 48
19 17 10 45 22 62 25 17 4 36 13 42 21 6 8 26 17 43 20 18 4 46 16 63 26 17
10 38 19 47 19 9 0 22 6 30 14 14 14 137 76 151 76 4 0 16 8 26 18 11 10 41
29 67 42 27 12 53 28 58 34 6 7 35 27 65 44 30 18 75 48 100 67 25 18 49 34
54 34 5 1 18 10 30 22 12 11 38 33 58 47 21 15 63 45 94 67 31 22 81 66 112
97 30 32 63 58 72 58 10 0 47 33 81 72 35 40 70 77 78 82 8 5 29 23 45 40 28
28 51 56 159 191 18 22 47 55 65 74 17 19 32 39 32 44 0 5 15 28 33 51 18 23
48 66 65 97 18 31 39 62 47 69 8 7 15 18 15 24 0 6 18 37 40 69 22 31 40 63
40 71 0 7 9 21 20 31 11 10 20 23 20 28 0 10 43 105 61 137 5 8 14 26 20 40 6
14 19 42 30 62 10 20 19 43 19 50 0 7 8 29 19 48 10 19 21 51 25 71 4 21 13
42 21 49 8 6 17 32 21 58 4 25 15 64 25 87 10 22 19 53 19 68 0 15 9 45 20 67
11 22 20 57 20 79 0 22 9 63 20 91 11 28 20 72 20 99 0 27 10 77 22 112 l23
64 0 2915 0 2915 -4431 3 c-2437 1 -4434 -1 -4437 -5z m8198 -505 c3 -13 4
-1096 2 -2408 -3 -1779 -7 -2399 -15 -2440 -7 -30 -16 -116 -22 -190 -5 -74
-16 -157 -25 -184 -8 -27 -15 -72 -15 -100 0 -28 -7 -64 -15 -79 -8 -16 -20
-59 -26 -95 -6 -37 -17 -77 -25 -89 -7 -12 -17 -40 -20 -63 -4 -23 -15 -58
-25 -78 -11 -20 -19 -45 -19 -57 0 -11 -9 -31 -20 -45 -11 -14 -20 -39 -20
-56 0 -17 -8 -42 -19 -55 -10 -13 -24 -41 -30 -61 -7 -21 -17 -40 -22 -43 -5
-4 -9 -17 -9 -29 0 -13 -9 -35 -20 -49 -11 -14 -20 -31 -20 -37 0 -7 -11 -25
-25 -42 -14 -16 -25 -38 -25 -48 0 -9 -7 -23 -15 -30 -8 -6 -17 -22 -21 -33
-4 -12 -15 -33 -25 -46 -11 -13 -19 -32 -19 -42 0 -9 -6 -24 -13 -31 -7 -7
-28 -40 -47 -73 -19 -33 -42 -66 -52 -73 -10 -7 -18 -18 -18 -25 0 -14 -46
-81 -87 -126 -18 -20 -33 -40 -33 -44 0 -18 -100 -138 -167 -202 -24 -23 -43
-45 -43 -51 0 -15 -64 -84 -78 -84 -6 0 -67 -53 -134 -118 -152 -147 -192
-182 -208 -182 -7 0 -36 -19 -64 -43 -28 -24 -69 -54 -91 -67 -22 -13 -41 -28
-43 -32 -2 -4 -32 -24 -67 -43 -35 -20 -69 -42 -75 -50 -7 -8 -17 -15 -23 -15
-5 0 -34 -16 -63 -35 -29 -20 -70 -42 -91 -49 -21 -8 -69 -30 -106 -50 -38
-20 -77 -36 -87 -36 -9 0 -23 -6 -29 -14 -7 -8 -27 -18 -44 -21 -18 -4 -50
-15 -72 -25 -106 -48 -137 -60 -156 -60 -11 0 -37 -9 -59 -20 -22 -11 -52 -20
-67 -20 -15 0 -46 -9 -69 -19 -23 -10 -65 -22 -95 -26 -30 -3 -80 -15 -112
-26 -31 -10 -75 -19 -97 -19 -22 0 -73 -9 -112 -20 -43 -12 -104 -20 -148 -20
-41 0 -124 -7 -185 -15 -128 -17 -488 -20 -583 -5 -34 6 -126 15 -205 20 -78
5 -155 14 -172 20 -16 6 -69 16 -116 21 -47 4 -101 15 -120 22 -19 8 -60 17
-91 21 -32 3 -80 15 -108 26 -28 11 -64 20 -81 20 -16 0 -47 9 -69 20 -22 11
-49 20 -60 20 -11 0 -38 9 -60 20 -22 11 -49 20 -61 20 -12 0 -36 8 -53 19
-17 10 -47 21 -67 25 -21 4 -42 13 -49 21 -7 8 -21 15 -32 15 -10 0 -35 8 -56
19 -20 10 -51 22 -68 25 -18 4 -40 16 -50 27 -9 10 -25 19 -36 19 -10 0 -35 9
-55 20 -21 11 -43 20 -49 20 -6 0 -19 9 -29 20 -10 11 -24 20 -30 20 -15 0
-106 46 -162 83 -24 15 -69 41 -100 58 -32 17 -67 40 -79 50 -11 10 -23 19
-27 19 -3 0 -26 14 -49 30 -24 17 -59 42 -78 55 -19 14 -60 46 -90 70 -30 25
-86 70 -125 99 -87 68 -225 202 -330 323 -153 176 -210 245 -237 285 -15 22
-43 59 -61 82 -52 63 -206 334 -207 362 0 6 -7 17 -15 24 -18 15 -65 113 -65
137 0 10 -9 32 -20 48 -11 17 -20 39 -20 50 0 11 -9 35 -20 53 -11 18 -20 42
-20 55 0 12 -9 40 -19 62 -10 23 -21 63 -26 90 -4 27 -13 62 -21 76 -7 15 -18
66 -23 113 -6 47 -15 95 -21 106 -6 12 -16 90 -21 173 -5 84 -13 186 -19 227
-13 106 -14 4905 0 4931 11 19 63 19 3745 19 l3735 0 5 -22z"/>
<path d="M5735 8736 c-90 -42 -158 -139 -169 -241 -7 -76 10 -114 69 -148 49
-29 51 -29 105 -15 43 11 60 21 77 47 22 33 21 61 -2 61 -8 0 -16 -8 -19 -18
-7 -22 -57 -52 -86 -52 -13 0 -37 9 -55 20 -25 15 -34 29 -39 59 -12 80 10
136 82 203 103 97 210 89 286 -21 25 -35 29 -51 29 -109 0 -53 -6 -78 -28
-122 -31 -62 -65 -115 -114 -180 -30 -40 -66 -108 -90 -173 -11 -29 2 -47 35
-47 32 0 36 12 18 56 -13 32 -14 40 -2 48 16 13 110 139 157 211 17 27 41 81
53 119 20 67 20 72 5 144 -19 86 -50 133 -107 162 -55 28 -140 27 -205 -4z"/>
<path d="M3706 8594 c-4 -11 -14 -14 -35 -9 -31 7 -32 5 -46 -62 -14 -68 -8
-116 15 -135 31 -25 84 -23 109 3 33 36 34 65 4 144 -29 77 -36 87 -47 59z"/>
<path d="M3650 8292 c0 -25 87 -105 135 -124 51 -21 214 -38 359 -38 l113 0
63 -82 c63 -83 175 -197 303 -309 l68 -59 352 0 c267 1 358 4 375 14 30 16
147 131 220 215 31 36 62 71 68 76 23 22 63 92 74 130 6 22 10 60 8 85 -3 43
-5 46 -58 75 l-55 30 -1012 3 c-975 3 -1013 2 -1013 -16z"/>
<path d="M4697 7656 c-3 -8 -3 -17 0 -20 4 -3 161 -6 349 -6 335 0 385 4 343
31 -8 5 -165 9 -350 9 -280 0 -338 -2 -342 -14z"/>
<path d="M4748 7593 c-19 -5 -153 -201 -144 -210 6 -7 887 -5 894 1 2 3 -12
32 -32 66 -20 33 -36 63 -36 66 0 2 -11 22 -25 44 l-26 41 -307 -2 c-169 -1
-315 -4 -324 -6z"/>
<path d="M4815 7134 c-22 -14 -49 -29 -60 -35 -11 -5 -36 -19 -55 -31 -156
-95 -462 -224 -645 -271 -33 -9 -78 -20 -100 -26 -88 -22 -255 -41 -370 -41
-115 0 -295 20 -360 40 -16 5 -55 17 -85 25 -122 36 -278 109 -433 204 -65 40
-121 70 -124 67 -3 -3 -1 -140 6 -303 15 -414 31 -871 41 -1248 24 -875 41
-1077 112 -1375 49 -207 90 -326 175 -520 173 -393 466 -737 838 -982 117 -78
260 -152 446 -232 111 -48 418 -134 591 -166 49 -9 75 -9 100 -1 18 6 96 32
173 57 77 25 149 49 160 54 11 4 47 19 80 31 33 13 64 27 69 31 6 4 16 8 23 8
12 0 136 55 243 109 363 182 650 412 851 682 110 147 179 263 245 414 73 168
144 410 178 605 53 315 50 200 53 1559 3 858 1 1267 -6 1274 -7 7 -16 5 -29
-6 -10 -9 -21 -17 -24 -17 -3 0 -40 -23 -83 -51 -241 -159 -463 -229 -727
-229 -167 0 -315 24 -513 82 -93 28 -134 42 -210 73 -16 7 -46 19 -64 26 -19
8 -105 49 -190 93 -207 104 -210 106 -216 117 -11 16 -49 9 -90 -17z m113
-257 c39 -24 227 -117 236 -117 3 0 34 -13 68 -28 91 -42 136 -59 198 -78 30
-9 73 -22 95 -29 130 -42 229 -62 410 -81 171 -19 304 -13 473 22 92 19 248
69 280 90 56 36 53 97 50 -1083 -3 -793 -7 -1103 -16 -1143 -6 -30 -19 -98
-28 -150 -26 -155 -79 -352 -125 -465 -6 -17 -15 -39 -19 -50 -149 -373 -424
-686 -810 -922 -142 -86 -411 -217 -520 -253 -14 -5 -50 -18 -80 -30 -150 -58
-268 -93 -310 -93 -74 1 -319 65 -470 123 -30 12 -64 24 -75 27 -46 13 -256
118 -349 175 -158 97 -251 170 -396 317 -115 115 -252 285 -283 351 -4 8 -21
38 -37 65 -79 131 -162 321 -205 470 -10 33 -21 71 -26 85 -10 31 -36 139 -49
205 -36 182 -51 331 -65 684 -38 973 -58 1682 -45 1695 5 5 33 -3 65 -19 124
-58 305 -106 493 -130 162 -20 227 -19 413 5 218 28 339 58 578 145 95 35 441
202 466 226 15 15 43 10 83 -14z"/>
<path d="M4900 6309 c-338 -3 -663 -7 -722 -8 l-107 -1 -37 -37 c-20 -21 -57
-65 -82 -98 -25 -33 -53 -68 -63 -77 -10 -10 -30 -34 -45 -55 -16 -21 -43 -54
-60 -74 l-32 -37 4 -228 c3 -126 11 -323 20 -439 8 -115 16 -244 17 -285 2
-67 4 -76 25 -86 13 -6 29 -17 35 -23 6 -6 19 -11 29 -11 10 0 18 -4 18 -9 0
-5 10 -13 23 -17 53 -17 66 -36 67 -95 0 -31 7 -78 15 -105 8 -27 15 -59 15
-71 0 -46 127 -302 177 -359 77 -87 163 -171 199 -196 44 -30 119 -65 149 -70
19 -3 20 -11 20 -133 l0 -130 -125 -2 -125 -1 0 -291 0 -291 185 -4 c207 -6
561 -5 778 1 115 3 142 7 142 19 0 7 0 133 0 279 0 146 0 269 0 275 0 5 -57
11 -137 12 l-138 3 0 130 0 130 40 6 c22 3 52 11 68 17 75 31 233 179 283 267
16 27 34 59 41 70 15 26 51 102 68 140 37 87 48 141 61 287 4 50 12 82 22 90
14 12 60 31 119 49 22 7 34 17 37 32 14 77 29 211 37 332 5 77 13 160 18 185
6 25 10 85 11 134 0 49 7 127 16 172 l15 83 -58 88 c-31 48 -64 99 -71 113 -7
14 -19 32 -26 40 -7 8 -30 44 -51 80 -21 36 -42 67 -46 70 -3 3 -15 23 -27 45
-11 22 -31 52 -45 68 -23 24 -32 27 -84 25 -32 -1 -335 -5 -673 -9z m590 -405
c96 -3 190 -7 208 -10 l32 -5 0 -97 c-1 -122 -26 -309 -48 -349 -7 -12 -12
-31 -12 -43 0 -11 -16 -51 -37 -88 -20 -37 -41 -77 -48 -89 -18 -34 -164 -183
-179 -183 -15 0 -121 109 -176 180 -55 74 -120 192 -120 221 0 8 -4 19 -9 25
-5 5 -19 49 -30 97 -21 89 -30 302 -14 343 6 15 18 16 132 10 69 -3 205 -9
301 -12z m-862 -82 c2 -34 -2 -88 -9 -120 -6 -31 -15 -82 -19 -113 -4 -30 -12
-65 -19 -77 -6 -11 -11 -31 -11 -44 0 -13 -7 -33 -15 -44 -8 -10 -15 -28 -15
-39 -2 -75 -219 -395 -268 -395 -5 0 -41 31 -80 70 -85 83 -131 154 -186 280
-33 77 -65 265 -72 428 l-6 122 348 -2 349 -3 3 -63z"/>
</g>
</svg>
